HIERARCHY
ROOT Hips
{
	OFFSET 0.000000 121.760803 0.000000
	CHANNELS 6 Xposition Yposition Zposition Xrotation Yrotation Zrotation 
	JOINT Spine
	{
		OFFSET 0.072000 7.257294 -0.789700
		CHANNELS 3 Xrotation Yrotation Zrotation
		JOINT Spine1
		{
			OFFSET 0.000000 12.508769 -0.658067
			CHANNELS 3 Xrotation Yrotation Zrotation
			JOINT Spine1_split
			{
				OFFSET 0.000000 12.508769 -0.658067
				CHANNELS 3 Xrotation Yrotation Zrotation
				JOINT Spine2
				{
					OFFSET 0.000000 12.508769 -0.658067
					CHANNELS 3 Xrotation Yrotation Zrotation
					JOINT Neck
					{
						OFFSET 0.000000 14.033295 7.520400
						CHANNELS 3 Xrotation Yrotation Zrotation
						JOINT Head
						{
							OFFSET 0.000000 8.198502 5.703100
							CHANNELS 3 Xrotation Yrotation Zrotation
							JOINT HeadTop_End
							{
								OFFSET 0.000000 17.760803 13.332701
								CHANNELS 3 Xrotation Yrotation Zrotation
								End Site
								{
									OFFSET 0.000000 0.000000 0.000000
								}
							}
						}
					}
					JOINT LeftShoulder
					{
						OFFSET 6.292450 5.785301 -0.669000
						CHANNELS 3 Xrotation Yrotation Zrotation
						JOINT LeftShoulder_split
						{
							OFFSET 6.292450 5.785301 -0.669000
							CHANNELS 3 Xrotation Yrotation Zrotation
							JOINT LeftArm
							{
								OFFSET 13.907140 -6.093903 1.965100
								CHANNELS 3 Xrotation Yrotation Zrotation
								JOINT LeftForeArm
								{
									OFFSET 34.140198 0.000000 0.000000
									CHANNELS 3 Xrotation Yrotation Zrotation
									JOINT LeftHand
									{
										OFFSET 40.960209 0.000000 0.000000
										CHANNELS 3 Xrotation Yrotation Zrotation
										JOINT LeftHandThumb1
										{
											OFFSET 10.006996 -7.170425 9.573125
											CHANNELS 3 Xrotation Yrotation Zrotation
											JOINT LeftHandThumb2
											{
												OFFSET 1.835007 -1.059448 1.059443
												CHANNELS 3 Xrotation Yrotation Zrotation
												JOINT LeftHandThumb3
												{
													OFFSET 2.112267 -1.219513 1.219518
													CHANNELS 3 Xrotation Yrotation Zrotation
													JOINT LeftHandThumb4
													{
														OFFSET 4.843811 -2.796570 2.796576
														CHANNELS 3 Xrotation Yrotation Zrotation
														End Site
														{
															OFFSET 0.000000 0.000000 0.000000
														}
													}
												}
											}
										}
										JOINT LeftHandIndex1
										{
											OFFSET 18.389847 -0.922348 4.596882
											CHANNELS 3 Xrotation Yrotation Zrotation
											JOINT LeftHandIndex2
											{
												OFFSET 4.711273 0.000000 0.000000
												CHANNELS 3 Xrotation Yrotation Zrotation
												JOINT LeftHandIndex3
												{
													OFFSET 2.886131 0.000000 0.000000
													CHANNELS 3 Xrotation Yrotation Zrotation
													JOINT LeftHandIndex4
													{
														OFFSET 6.145912 0.000000 0.000000
														CHANNELS 3 Xrotation Yrotation Zrotation
														End Site
														{
															OFFSET 0.000000 0.000000 0.000000
														}
													}
												}
											}
										}
										JOINT LeftHandMiddle1
										{
											OFFSET 18.013008 0.000000 0.000000
											CHANNELS 3 Xrotation Yrotation Zrotation
											JOINT LeftHandMiddle2
											{
												OFFSET 4.946693 0.000000 0.000000
												CHANNELS 3 Xrotation Yrotation Zrotation
												JOINT LeftHandMiddle3
												{
													OFFSET 3.342232 0.000000 0.000000
													CHANNELS 3 Xrotation Yrotation Zrotation
													JOINT LeftHandMiddle4
													{
														OFFSET 4.461754 0.000000 0.000000
														CHANNELS 3 Xrotation Yrotation Zrotation
														End Site
														{
															OFFSET 0.000000 0.000000 0.000000
														}
													}
												}
											}
										}
										JOINT LeftHandRing1
										{
											OFFSET 15.849892 -0.102921 -4.126150
											CHANNELS 3 Xrotation Yrotation Zrotation
											JOINT LeftHandRing2
											{
												OFFSET 3.527054 0.000000 0.000000
												CHANNELS 3 Xrotation Yrotation Zrotation
												JOINT LeftHandRing3
												{
													OFFSET 2.961098 0.000000 0.000000
													CHANNELS 3 Xrotation Yrotation Zrotation
													JOINT LeftHandRing4
													{
														OFFSET 4.927200 0.000000 0.000000
														CHANNELS 3 Xrotation Yrotation Zrotation
														End Site
														{
															OFFSET 0.000000 0.000000 0.000000
														}
													}
												}
											}
										}
										JOINT LeftHandPinky1
										{
											OFFSET 12.791824 -0.832031 -6.799156
											CHANNELS 3 Xrotation Yrotation Zrotation
											JOINT LeftHandPinky2
											{
												OFFSET 3.327133 0.000000 0.000000
												CHANNELS 3 Xrotation Yrotation Zrotation
												JOINT LeftHandPinky3
												{
													OFFSET 3.014900 0.000000 0.000000
													CHANNELS 3 Xrotation Yrotation Zrotation
													JOINT LeftHandPinky4
													{
														OFFSET 5.847786 0.000000 0.000000
														CHANNELS 3 Xrotation Yrotation Zrotation
														End Site
														{
															OFFSET 0.000000 0.000000 0.000000
														}
													}
												}
											}
										}
									}
								}
							}
						}
					}
					JOINT RightShoulder
					{
						OFFSET -6.292450 5.785301 -0.669000
						CHANNELS 3 Xrotation Yrotation Zrotation
						JOINT RightShoulder_split
						{
							OFFSET -6.292450 5.785301 -0.669000
							CHANNELS 3 Xrotation Yrotation Zrotation
							JOINT RightArm
							{
								OFFSET -13.907140 -6.093903 1.965100
								CHANNELS 3 Xrotation Yrotation Zrotation
								JOINT RightForeArm
								{
									OFFSET -34.140198 0.000000 0.000000
									CHANNELS 3 Xrotation Yrotation Zrotation
									JOINT RightHand
									{
										OFFSET -40.960209 0.000000 0.000000
										CHANNELS 3 Xrotation Yrotation Zrotation
										JOINT RightHandThumb1
										{
											OFFSET -10.007050 -7.170456 9.573117
											CHANNELS 3 Xrotation Yrotation Zrotation
											JOINT RightHandThumb2
											{
												OFFSET -1.835007 -1.059448 1.059443
												CHANNELS 3 Xrotation Yrotation Zrotation
												JOINT RightHandThumb3
												{
													OFFSET -2.112267 -1.219513 1.219518
													CHANNELS 3 Xrotation Yrotation Zrotation
													JOINT RightHandThumb4
													{
														OFFSET -4.843834 -2.796585 2.796590
														CHANNELS 3 Xrotation Yrotation Zrotation
														End Site
														{
															OFFSET 0.000000 0.000000 0.000000
														}
													}
												}
											}
										}
										JOINT RightHandIndex1
										{
											OFFSET -18.389870 -0.922424 4.596786
											CHANNELS 3 Xrotation Yrotation Zrotation
											JOINT RightHandIndex2
											{
												OFFSET -4.711273 0.000000 0.000000
												CHANNELS 3 Xrotation Yrotation Zrotation
												JOINT RightHandIndex3
												{
													OFFSET -2.886131 0.000000 0.000000
													CHANNELS 3 Xrotation Yrotation Zrotation
													JOINT RightHandIndex4
													{
														OFFSET -6.145920 0.000000 0.000000
														CHANNELS 3 Xrotation Yrotation Zrotation
														End Site
														{
															OFFSET 0.000000 0.000000 0.000000
														}
													}
												}
											}
										}
										JOINT RightHandMiddle1
										{
											OFFSET -18.013008 0.000000 0.000000
											CHANNELS 3 Xrotation Yrotation Zrotation
											JOINT RightHandMiddle2
											{
												OFFSET -4.946693 0.000000 0.000000
												CHANNELS 3 Xrotation Yrotation Zrotation
												JOINT RightHandMiddle3
												{
													OFFSET -3.342232 0.000000 0.000000
													CHANNELS 3 Xrotation Yrotation Zrotation
													JOINT RightHandMiddle4
													{
														OFFSET -4.461754 0.000000 0.000000
														CHANNELS 3 Xrotation Yrotation Zrotation
														End Site
														{
															OFFSET 0.000000 0.000000 0.000000
														}
													}
												}
											}
										}
										JOINT RightHandRing1
										{
											OFFSET -15.849876 -0.102936 -4.126237
											CHANNELS 3 Xrotation Yrotation Zrotation
											JOINT RightHandRing2
											{
												OFFSET -3.527054 0.000000 0.000000
												CHANNELS 3 Xrotation Yrotation Zrotation
												JOINT RightHandRing3
												{
													OFFSET -2.961098 0.000000 0.000000
													CHANNELS 3 Xrotation Yrotation Zrotation
													JOINT RightHandRing4
													{
														OFFSET -4.927200 0.000000 0.000000
														CHANNELS 3 Xrotation Yrotation Zrotation
														End Site
														{
															OFFSET 0.000000 0.000000 0.000000
														}
													}
												}
											}
										}
										JOINT RightHandPinky1
										{
											OFFSET -12.791786 -0.832077 -6.799222
											CHANNELS 3 Xrotation Yrotation Zrotation
											JOINT RightHandPinky2
											{
												OFFSET -3.327133 0.000000 0.000000
												CHANNELS 3 Xrotation Yrotation Zrotation
												JOINT RightHandPinky3
												{
													OFFSET -3.014900 0.000000 0.000000
													CHANNELS 3 Xrotation Yrotation Zrotation
													JOINT RightHandPinky4
													{
														OFFSET -5.847786 0.000000 0.000000
														CHANNELS 3 Xrotation Yrotation Zrotation
														End Site
														{
															OFFSET 0.000000 0.000000 0.000000
														}
													}
												}
											}
										}
									}
								}
							}
						}
					}
				}
			}
		}
	}
	JOINT LeftUpLeg
	{
		OFFSET 13.026900 -6.336304 -1.092800
		CHANNELS 3 Xrotation Yrotation Zrotation
		JOINT LeftLeg
		{
			OFFSET 0.524474 -46.096886 9.782700
			CHANNELS 3 Xrotation Yrotation Zrotation
			JOINT LeftFoot
			{
				OFFSET -0.524474 -53.427422 -12.948200
				CHANNELS 3 Xrotation Yrotation Zrotation
				JOINT LeftToeBase
				{
					OFFSET 0.192200 -14.009700 16.364100
					CHANNELS 3 Xrotation Yrotation Zrotation
					JOINT LeftToe_End
					{
						OFFSET -1.784700 -0.561700 9.474800
						CHANNELS 3 Xrotation Yrotation Zrotation
						End Site
						{
							OFFSET 0.000000 0.000000 0.000000
						}
					}
				}
			}
		}
	}
	JOINT RightUpLeg
	{
		OFFSET -12.883000 -6.336304 -1.092800
		CHANNELS 3 Xrotation Yrotation Zrotation
		JOINT RightLeg
		{
			OFFSET -0.524587 -46.096825 9.782800
			CHANNELS 3 Xrotation Yrotation Zrotation
			JOINT RightFoot
			{
				OFFSET 0.524587 -53.427383 -12.948300
				CHANNELS 3 Xrotation Yrotation Zrotation
				JOINT RightToeBase
				{
					OFFSET -0.192200 -14.009700 16.364100
					CHANNELS 3 Xrotation Yrotation Zrotation
					JOINT RightToe_End
					{
						OFFSET 1.784700 -0.561700 9.474800
						CHANNELS 3 Xrotation Yrotation Zrotation
						End Site
						{
							OFFSET 0.000000 0.000000 0.000000
						}
					}
				}
			}
		}
	}
}
MOTION
Frames: 4
Frame Time: 0.016667
6.832393 114.666206 7.277190 -0.176651 18.985949 6.278432 0.083287 6.956060 10.725577 8.389052 6.747490 0.422354 0.000000 0.000000 0.000000 0.206958 6.614086 0.368025 -13.227443 -19.480640 1.743815 5.179464 -17.358822 -2.364415 -0.000000 -0.000000 -0.000002 -0.154067 9.312180 20.132353 0.000000 0.000000 0.000000 -63.723384 6.157093 -31.462464 318.740804 -20.602980 373.295820 -53.062742 28.769723 30.735554 17.551614 -5.699197 -12.932302 10.850466 26.127721 8.644845 20.927001 51.115896 0.218772 0.000002 -0.000001 -0.000001 13.980911 1.201544 -55.004374 0.370824 1.161707 -65.441873 1.983969 2.147979 -57.665129 0.000004 -0.000001 -0.000000 7.504740 1.174482 -63.778517 1.807821 1.475673 -64.567930 0.130355 -0.912248 -43.272534 -0.000003 -0.000000 -0.000002 8.574327 2.179139 -75.148999 -0.207669 1.009290 -57.855056 0.443116 1.742180 -53.581256 -0.000001 0.000003 0.000003 10.030083 13.637063 -84.750237 0.877098 0.062313 -64.595544 1.141290 1.253124 -55.016327 -0.000001 -0.000000 -0.000001 5.429954 9.442456 5.676204 0.000000 0.000000 0.000000 15.856547 -66.495259 55.369956 -0.248996 19.228893 37.981545 72.680501 -1.056088 4.143546 15.788542 -2.734534 -17.205817 -2.832796 -29.366590 12.741426 1.549764 -21.136942 -0.203057 -0.000001 -0.000001 -0.000001 3.460504 -3.220941 22.317863 -2.139071 -2.479450 34.133843 -1.901593 -4.823232 29.633797 -0.000002 -0.000000 -0.000000 -1.981747 -5.708777 28.547059 0.291821 -5.115403 57.918508 -0.653269 -1.226452 30.651932 0.000000 0.000000 0.000000 -3.258549 -8.570292 35.335697 4.048568 -4.073925 65.874483 2.135986 -3.202284 38.603905 0.000000 -0.000000 -0.000000 -5.950095 -17.426348 53.146812 10.727131 -2.565953 58.259424 6.418942 -3.089226 38.747359 0.000000 0.000000 -0.000000 -19.393233 -6.294757 -5.064422 19.925591 0.818110 -4.378256 -0.844898 10.496792 0.536310 -1.917221 0.119895 -0.781991 0.000000 -0.000000 -0.000000 1.643794 -10.527508 -16.233661 22.783293 -21.569925 1.245414 -1.532655 -30.971469 25.060420 -6.991147 -0.014935 -0.120591 0.000000 -0.000000 -0.000000 
6.875413 114.486427 7.585388 0.430331 23.787344 5.379617 -1.163161 7.251443 10.920205 7.340190 7.401390 -0.347062 0.000000 0.000000 0.000000 0.687530 7.224078 -0.473161 -14.981685 -22.379376 3.474325 6.383155 -19.162917 -1.752123 0.000000 0.000001 0.000002 -0.958327 11.589829 16.054735 0.000000 0.000000 0.000000 -66.492103 6.731935 -32.420917 309.931445 -20.341207 375.357171 -52.110150 22.279611 29.101828 17.551612 -5.699197 -12.932301 10.850460 26.127717 8.644842 20.927000 51.115899 0.218768 0.000001 -0.000001 -0.000001 13.980911 1.201547 -55.004371 0.370823 1.161706 -65.441873 1.983969 2.147975 -57.665129 -0.000001 0.000002 0.000001 7.504731 1.174486 -63.778510 1.807818 1.475671 -64.567937 0.130359 -0.912247 -43.272537 0.000000 -0.000001 -0.000000 8.574333 2.179137 -75.148999 -0.207669 1.009284 -57.855056 0.443113 1.742181 -53.581256 0.000002 -0.000005 -0.000001 10.030082 13.637063 -84.750230 0.877098 0.062315 -64.595537 1.141291 1.253125 -55.016323 -0.000002 0.000000 0.000001 5.228957 9.723387 6.084448 0.000000 0.000000 0.000000 10.668941 -68.209397 51.667543 -0.500538 18.866873 38.212368 79.163580 0.444239 3.903834 15.788534 -2.734493 -17.205800 -2.817497 -29.403698 12.657769 1.442636 -20.888488 -0.184271 0.000000 -0.000000 0.000000 3.434952 -3.235351 22.125544 -2.139760 -2.479380 33.905080 -1.901747 -4.823952 29.405020 0.000001 0.000000 0.000000 -1.981944 -5.708339 28.331300 0.291633 -5.115289 57.471623 -0.653960 -1.226222 30.444137 0.000001 0.000000 0.000000 -3.259478 -8.570082 34.996516 4.048359 -4.073841 65.399287 2.134215 -3.200698 38.277189 0.000000 0.000000 -0.000002 -6.000663 -17.333598 52.703891 10.727030 -2.565895 57.922887 6.418852 -3.088826 38.410744 0.000001 0.000001 0.000000 -21.239824 -9.188810 -5.567673 20.504054 -0.148500 -4.574574 -0.583310 9.680922 0.752850 -1.888313 0.117178 -0.774289 0.000000 -0.000002 0.000000 2.534718 -15.145432 -14.830238 21.440415 -20.902184 0.913673 -2.297886 -29.498409 24.635353 -7.886822 -0.013856 -0.038128 -0.000000 0.000002 -0.000000 
6.902803 114.282974 7.834995 1.111291 27.949694 4.538473 -2.219563 7.569256 10.756062 6.409503 8.037286 -1.007984 0.000000 0.000000 0.000000 1.207256 7.779498 -1.226570 -16.665346 -24.736638 4.961174 7.293000 -20.429630 -1.343614 0.000001 0.000000 -0.000001 -1.386123 13.153990 11.553609 0.000000 0.000000 0.000000 -68.111398 6.494239 -33.152423 305.017233 -21.210164 374.224125 -51.626238 18.333278 27.120507 17.551612 -5.699193 -12.932303 10.850461 26.127712 8.644842 20.927000 51.115899 0.218776 0.000001 -0.000001 -0.000002 13.980911 1.201548 -55.004374 0.370825 1.161706 -65.441873 1.983968 2.147974 -57.665129 0.000001 0.000002 0.000001 7.504734 1.174486 -63.778517 1.807819 1.475671 -64.567937 0.130364 -0.912244 -43.272534 0.000000 -0.000003 -0.000000 8.574331 2.179142 -75.149006 -0.207666 1.009288 -57.855056 0.443115 1.742179 -53.581256 -0.000000 -0.000001 -0.000001 10.030082 13.637063 -84.750237 0.877098 0.062316 -64.595537 1.141290 1.253122 -55.016320 -0.000001 -0.000001 0.000000 5.052229 10.207458 6.320873 0.000000 0.000000 0.000000 6.135789 -67.294528 48.041163 0.327636 18.396968 37.774539 83.008573 -0.368258 3.065846 15.788537 -2.734545 -17.205812 -2.808277 -29.432651 12.569099 1.336065 -20.641581 -0.165113 0.000000 -0.000001 -0.000000 3.396515 -3.255163 21.917870 -2.140529 -2.479413 33.642230 -1.901918 -4.824747 29.142105 -0.000001 0.000001 0.000001 -1.982215 -5.708098 28.088038 0.291428 -5.115147 56.979142 -0.654732 -1.226118 30.213028 -0.000001 -0.000000 0.000003 -3.260385 -8.569919 34.620094 4.048114 -4.073736 64.869114 2.132312 -3.199046 37.919680 -0.000002 0.000000 0.000000 -6.047911 -17.233595 52.206445 10.726882 -2.565848 57.544822 6.418764 -3.088693 38.032669 -0.000000 0.000001 -0.000003 -23.033314 -11.933830 -6.202106 21.057514 -0.667778 -4.730483 -0.342626 8.921792 0.819039 -1.859379 0.114635 -0.766583 0.000000 -0.000000 -0.000000 3.241835 -19.984637 -13.653876 20.197481 -19.322187 0.675216 -3.397093 -27.885463 23.973752 -8.763774 -0.012918 0.039921 -0.000000 -0.000002 -0.000000 
6.898987 114.095161 8.012950 1.766453 30.903645 3.898914 -3.138325 7.905117 10.323934 5.554689 8.658323 -1.589352 0.000000 0.000000 0.000000 1.738243 8.299228 -1.912930 -18.260210 -26.743042 6.305349 8.037611 -21.371746 -1.064212 -0.000001 -0.000000 0.000001 -1.577759 14.389634 6.973791 0.000000 0.000000 0.000000 -69.478030 6.137845 -33.977992 302.849468 -21.535475 372.111657 -50.465471 13.830761 25.019673 17.551616 -5.699198 -12.932301 10.850466 26.127717 8.644844 20.927003 51.115899 0.218778 -0.000001 -0.000001 -0.000000 13.980911 1.201544 -55.004374 0.370826 1.161707 -65.441873 1.983970 2.147974 -57.665129 0.000002 -0.000003 -0.000001 7.504734 1.174484 -63.778517 1.807816 1.475673 -64.567937 0.130356 -0.912248 -43.272534 0.000003 0.000004 0.000002 8.574333 2.179136 -75.149006 -0.207667 1.009289 -57.855049 0.443115 1.742180 -53.581253 0.000001 -0.000002 -0.000000 10.030084 13.637060 -84.750237 0.877098 0.062318 -64.595544 1.141291 1.253126 -55.016323 -0.000000 0.000001 -0.000001 4.894002 10.841099 6.313584 0.000000 0.000000 0.000000 4.878265 -64.300890 47.139121 1.435483 17.723762 37.243526 83.415816 -3.115069 2.073287 15.788512 -2.734534 -17.205819 -2.805480 -29.452780 12.475400 1.229973 -20.397974 -0.145660 -0.000001 0.000002 0.000000 3.344301 -3.280457 21.694667 -2.141384 -2.479312 33.343921 -1.902073 -4.825286 28.843824 0.000001 -0.000001 0.000000 -1.982580 -5.707902 27.816415 0.291207 -5.115006 56.439998 -0.655568 -1.225889 29.957923 -0.000001 -0.000001 0.000003 -3.261283 -8.569714 34.205553 4.047810 -4.073573 64.282435 2.130605 -3.197221 37.530824 0.000001 -0.000002 0.000003 -6.091013 -17.126349 51.652920 10.726722 -2.565686 57.123847 6.418628 -3.088611 37.611762 -0.000001 -0.000000 -0.000003 -24.600811 -14.486054 -6.996196 21.450563 -1.357469 -4.886730 -0.193493 9.381790 0.808145 -1.830466 0.112116 -0.758883 -0.000000 0.000001 0.000000 3.703733 -23.367913 -12.771348 19.367838 -18.252036 0.526695 -4.303436 -26.827576 23.536325 -9.230063 -0.012082 0.080787 -0.000000 -0.000002 -0.000000 
